<svg width="12" height="11" viewBox="0 0 12 11" fill="none" xmlns="http://www.w3.org/2000/svg">
<path d="M0.400364 5.54862C0.395352 5.47304 0.411694 5.40376 0.449391 5.34077C0.487089 5.27778 0.537346 5.22739 0.600165 5.18959C0.665494 5.1543 0.73459 5.13792 0.807451 5.14042L5.43164 5.13587L5.43618 0.499083C5.43368 0.426024 5.45128 0.357999 5.48898 0.29501C5.52668 0.232021 5.57568 0.182887 5.63598 0.147606C5.6988 0.109806 5.7679 0.0908997 5.84327 0.090887C5.91613 0.0883554 5.98271 0.107239 6.043 0.147538C6.10581 0.185317 6.15479 0.234435 6.18996 0.294892C6.22512 0.35535 6.24521 0.423368 6.25022 0.498946L6.24568 5.13573L10.8736 5.13495C10.9842 5.13493 11.0796 5.17522 11.16 5.25583C11.2404 5.33643 11.2806 5.43216 11.2806 5.54301C11.2831 5.65638 11.2416 5.75338 11.1562 5.83401C11.0758 5.91464 10.9815 5.95371 10.8735 5.95121L6.24554 5.95198L6.24476 10.5925C6.24726 10.7009 6.2083 10.7954 6.12788 10.876C6.04747 10.9566 5.95074 10.9982 5.83767 11.0007C5.72461 11.0033 5.62915 10.963 5.55127 10.8799C5.47089 10.7993 5.43071 10.7035 5.43072 10.5927L5.4315 5.95212L0.807314 5.95668C0.729428 5.95417 0.661595 5.93403 0.603815 5.89625C0.543521 5.86099 0.494537 5.81187 0.45686 5.7489C0.416671 5.68844 0.397839 5.62168 0.400364 5.54862Z" fill="#555555"/>
</svg>
