<svg width="240" height="48" viewBox="0 0 240 48" fill="none" xmlns="http://www.w3.org/2000/svg">
<rect width="240" height="48" rx="24" fill="#E1E1E1"/>
<path d="M84.912 16.608H87.04V24.048H84.912V16.608ZM79.968 17.168H82.288C82.288 21.104 80.016 23.408 75.52 24.384L74.816 22.672C78.528 21.936 79.968 20.304 79.968 18.32V17.168ZM75.664 17.168H80.864V18.864H75.664V17.168ZM81.712 18.448H85.184V20.064H81.712V18.448ZM81.616 21.328H85.104V22.928H81.616V21.328ZM77.248 24.592H87.04V28.672H79.408V30.512H77.28V27.104H84.912V26.256H77.248V24.592ZM77.28 29.616H87.344V31.28H77.28V29.616ZM89.9828 18.08H96.3668V19.76H89.9828V18.08ZM91.8868 22.32H93.9828V27.344H91.8868V22.32ZM95.5188 18.08H97.6148V19.28C97.6148 20.72 97.6148 22.512 97.2148 24.976L95.1348 24.784C95.5188 22.416 95.5188 20.704 95.5188 19.28V18.08ZM98.8788 16.608H101.007V31.424H98.8788V16.608ZM100.383 22.56H102.991V24.32H100.383V22.56ZM89.4228 28.432L89.2308 26.72C91.8388 26.72 95.2948 26.672 98.2068 26.304L98.3188 27.856C95.3268 28.368 91.9988 28.432 89.4228 28.432ZM107.719 27.984H121.127V29.712H107.719V27.984ZM113.335 24.816H115.463V28.4H113.335V24.816ZM109.127 17.552H111.239V19.824H117.559V17.552H119.671V25.264H109.127V17.552ZM111.239 21.488V23.568H117.559V21.488H111.239ZM132.693 16.592H134.821V31.456H132.693V16.592ZM130.373 21.936H133.125V23.648H130.373V21.936ZM122.933 26.272H124.149C126.549 26.272 128.453 26.224 130.597 25.856L130.789 27.584C128.597 27.952 126.613 28.032 124.149 28.032H122.933V26.272ZM122.901 17.856H129.573V23.424H125.045V26.8H122.933V21.744H127.477V19.552H122.901V17.856ZM146.612 16.592H148.756V31.408H146.612V16.592ZM148.196 22.256H150.804V24H148.196V22.256ZM142.724 18.128H144.804C144.804 22.576 143.108 26.384 138.18 28.864L136.996 27.248C140.884 25.232 142.724 22.512 142.724 18.496V18.128ZM137.812 18.128H143.812V19.84H137.812V18.128ZM162.067 16.608H164.211V31.424H162.067V16.608ZM157.699 18.144H159.811C159.811 22.672 158.275 26.384 153.011 28.928L151.907 27.232C156.163 25.184 157.699 22.496 157.699 18.528V18.144ZM152.691 18.144H158.707V19.824H152.691V18.144Z" fill="#ACACAC"/>
</svg>
