<svg width="30" height="30" viewBox="0 0 30 30" fill="none" xmlns="http://www.w3.org/2000/svg">
<circle id="Ellipse 3" cx="15" cy="15" r="14.5" stroke="#312E81"/>
<path transform="translate(8.5, 8.5)" d="M1.0625 12.3203C0.979167 12.2474 0.924479 12.1589 0.898438 12.0547C0.872396 11.9505 0.872396 11.8464 0.898438 11.7422C0.929688 11.638 0.984375 11.5495 1.0625 11.4766L5.85156 6.67969L1.0625 1.88281C0.984375 1.8099 0.932292 1.72135 0.90625 1.61719C0.880208 1.51302 0.880208 1.41146 0.90625 1.3125C0.932292 1.20833 0.984375 1.11719 1.0625 1.03906C1.13542 0.960938 1.22396 0.911458 1.32812 0.890625C1.43229 0.864583 1.53385 0.864583 1.63281 0.890625C1.73177 0.916667 1.82292 0.966146 1.90625 1.03906L6.69531 5.83594L11.4922 1.03906C11.6068 0.924479 11.7474 0.867188 11.9141 0.867188C12.0807 0.867188 12.2214 0.924479 12.3359 1.03906C12.4557 1.15365 12.513 1.29688 12.5078 1.46875C12.5078 1.63542 12.4505 1.77344 12.3359 1.88281L7.53906 6.67969L12.3359 11.4766C12.4505 11.5859 12.5078 11.724 12.5078 11.8906C12.5078 12.0573 12.4505 12.2005 12.3359 12.3203C12.2214 12.4401 12.0807 12.4974 11.9141 12.4922C11.7474 12.4922 11.6068 12.4349 11.4922 12.3203L6.69531 7.52344L1.90625 12.3203C1.82292 12.3984 1.73177 12.4479 1.63281 12.4688C1.53385 12.4948 1.43229 12.4948 1.32812 12.4688C1.22396 12.4479 1.13542 12.3984 1.0625 12.3203Z" fill="#555555"/>

</svg>
