<svg width="26" height="17" viewBox="0 0 26 17" fill="none" xmlns="http://www.w3.org/2000/svg">
<rect x="26" y="17" width="26" height="17" rx="4" transform="rotate(180 26 17)" fill="#8788AB"/>
<path transform="translate(8.5, 6)" d="M9.82541 1.07188L5.45455 5.7907C5.31808 5.93023 5.16556 6 4.99699 6C4.9127 6 4.83243 5.98097 4.75617 5.94292C4.67991 5.90909 4.61168 5.85835 4.55148 5.7907L0.174594 1.07188C0.0581985 0.94926 4.99371e-07 0.803382 4.84585e-07 0.634249C4.74235e-07 0.515856 0.0260892 0.408034 0.0782666 0.310782C0.130444 0.217759 0.20269 0.141649 0.295003 0.0824522C0.383304 0.0274838 0.483645 -1.21728e-07 0.596027 -1.31553e-07C0.756573 -1.45588e-07 0.901064 0.0634244 1.0295 0.190275L5.29199 4.78858L4.70801 4.78858L8.97652 0.190274C9.09693 0.0634237 9.23941 -8.87182e-07 9.40397 -9.01568e-07C9.51636 -9.11393e-07 9.6187 0.027483 9.71102 0.0824514C9.79932 0.141648 9.86956 0.217758 9.92173 0.310781C9.97391 0.408033 10 0.515855 10 0.634248C10 0.718815 9.98394 0.797039 9.95184 0.868921C9.91973 0.945031 9.87758 1.01268 9.82541 1.07188Z" fill="white"/>
</svg>
