<svg width="12" height="12" viewBox="0 0 12 12" fill="none" xmlns="http://www.w3.org/2000/svg">
<path d="M2.41309 10.9927L0.860352 11.6299C0.782227 11.6543 0.711426 11.6323 0.647949 11.564C0.589355 11.5005 0.574707 11.4321 0.604004 11.3589L1.27783 9.8501L8.94629 2.18896L10.0889 3.33154L2.41309 10.9927ZM10.6675 2.76025L9.51758 1.61035L10.1841 0.951172C10.355 0.790039 10.5259 0.702148 10.6968 0.6875C10.8726 0.672852 11.0361 0.73877 11.1875 0.885254L11.3926 1.09766C11.5439 1.24902 11.6147 1.4126 11.605 1.58838C11.6001 1.76416 11.5122 1.9375 11.3413 2.1084L10.6675 2.76025Z" fill="#726B6B"/>
</svg>
