<svg width="240" height="48" viewBox="0 0 240 48" fill="none" xmlns="http://www.w3.org/2000/svg">
<rect width="240" height="48" rx="24" fill="#312E81"/>
<path d="M89.14 23.92H102.548V25.616H89.14V23.92ZM94.948 24.992H97.092V28.112H94.948V24.992ZM90.788 17.232H100.852V22.736H90.788V17.232ZM98.756 18.896H92.868V21.072H98.756V18.896ZM90.692 29.472H101.076V31.168H90.692V29.472ZM90.692 26.864H92.804V30.032H90.692V26.864ZM114.563 16.608H116.579V31.424H114.563V16.608ZM109.683 21.664H112.131V23.392H109.683V21.664ZM111.571 16.848H113.555V30.752H111.571V16.848ZM106.483 19.024H108.083V20.544C108.083 23.872 107.171 27.184 104.819 28.656L103.555 27.088C105.731 25.728 106.483 23.072 106.483 20.544V19.024ZM106.963 19.024H108.547V20.544C108.547 23.008 109.283 25.504 111.427 26.752L110.179 28.304C107.827 26.912 106.963 23.808 106.963 20.544V19.024ZM104.115 18.096H110.723V19.808H104.115V18.096ZM124.875 17.504H126.539V19.216C126.539 21.728 125.531 24.24 123.115 25.264L121.995 23.616C124.059 22.704 124.875 20.88 124.875 19.216V17.504ZM125.259 17.504H126.923V19.216C126.923 20.8 127.723 22.4 129.675 23.168L128.539 24.784C126.235 23.872 125.259 21.632 125.259 19.216V17.504ZM132.811 16.624H134.827V25.664H132.811V16.624ZM131.035 20.208H133.387V21.92H131.035V20.208ZM129.675 16.896H131.659V25.2H129.675V16.896ZM129.803 25.872C132.907 25.872 134.907 26.912 134.907 28.656C134.907 30.384 132.907 31.424 129.803 31.424C126.683 31.424 124.715 30.384 124.715 28.656C124.715 26.912 126.683 25.872 129.803 25.872ZM129.803 27.472C127.899 27.472 126.827 27.872 126.827 28.656C126.827 29.44 127.899 29.824 129.803 29.824C131.707 29.824 132.763 29.44 132.763 28.656C132.763 27.872 131.707 27.472 129.803 27.472ZM140.361 17.376H142.137V18.704C142.137 21.68 140.809 24.288 137.897 25.264L136.793 23.552C139.321 22.736 140.361 20.736 140.361 18.704V17.376ZM140.809 17.376H142.521V18.608C142.521 20.576 143.481 22.4 145.833 23.152L144.729 24.816C141.993 23.872 140.809 21.488 140.809 18.608V17.376ZM147.193 16.608H149.321V25.28H147.193V16.608ZM144.297 25.664C147.433 25.664 149.369 26.736 149.369 28.544C149.369 30.368 147.433 31.424 144.297 31.424C141.161 31.424 139.225 30.368 139.225 28.544C139.225 26.736 141.161 25.664 144.297 25.664ZM144.297 27.312C142.377 27.312 141.353 27.712 141.353 28.544C141.353 29.376 142.377 29.792 144.297 29.792C146.233 29.792 147.257 29.376 147.257 28.544C147.257 27.712 146.233 27.312 144.297 27.312ZM144.489 19.296H147.497V21.024H144.489V19.296Z" fill="white"/>
</svg>
