<svg width="260" height="48" viewBox="0 0 260 48" fill="none" xmlns="http://www.w3.org/2000/svg">
<rect width="260" height="48" rx="24" fill="#312E81"/>
<path d="M115.9 28.032H121.532V29.76H108.188V28.032H113.788V25.84H109.724V20.848H117.948V19.264H109.708V17.584H120.028V22.496H111.82V24.144H120.364V25.84H115.9V28.032ZM132.491 19.744V19.68H124.283V18H134.603V19.744C134.603 21.808 134.603 23.824 134.059 26.848L131.963 26.656C132.491 23.84 132.491 21.744 132.491 19.744ZM122.907 27.728H136.235V29.456H122.907V27.728ZM149.866 16.656V27.232H147.738V16.656H149.866ZM139.898 21.328C139.898 22.512 140.762 23.232 141.85 23.232C142.954 23.232 143.786 22.512 143.786 21.328C143.786 20.112 142.954 19.408 141.85 19.408C140.762 19.408 139.898 20.112 139.898 21.328ZM145.85 21.328C145.85 23.472 144.106 25.056 141.85 25.056C139.594 25.056 137.834 23.472 137.834 21.328C137.834 19.152 139.594 17.584 141.85 17.584C144.106 17.584 145.85 19.152 145.85 21.328ZM142.17 29.44H150.234V31.12H140.058V26.192H142.17V29.44Z" fill="white"/>
</svg>
