<svg width="101" height="42" viewBox="0 0 101 42" fill="none" xmlns="http://www.w3.org/2000/svg">
<path d="M25.2 24.572H36.666V25.538H25.2V24.572ZM30.324 21.856H31.486V24.978H30.324V21.856ZM26.586 15.374H35.252V19.21H27.776V21.744H26.628V18.272H34.104V16.312H26.586V15.374ZM26.628 21.254H35.546V22.206H26.628V21.254ZM39.3109 15.78H47.4589V16.718H39.3109V15.78ZM38.0789 24.278H49.5169V25.244H38.0789V24.278ZM46.8429 15.78H47.9769V17.04C47.9769 18.664 47.9769 20.47 47.5009 23.2L46.3389 23.088C46.8429 20.498 46.8429 18.608 46.8429 17.04V15.78ZM54.3178 15.402C56.1798 15.402 57.4958 17.124 57.4958 19.812C57.4958 22.514 56.1798 24.236 54.3178 24.236C52.4558 24.236 51.1398 22.514 51.1398 19.812C51.1398 17.124 52.4558 15.402 54.3178 15.402ZM54.3178 16.452C53.0858 16.452 52.2458 17.768 52.2458 19.812C52.2458 21.87 53.0858 23.214 54.3178 23.214C55.5358 23.214 56.3898 21.87 56.3898 19.812C56.3898 17.768 55.5358 16.452 54.3178 16.452ZM59.5118 14.436H60.6878V27.092H59.5118V14.436ZM60.4078 19.49H62.7598V20.47H60.4078V19.49ZM63.8227 20.218H75.3027V21.17H63.8227V20.218ZM68.9607 20.624H70.0947V22.556H68.9607V20.624ZM68.9327 23.144H69.9267V23.536C69.9267 25.468 67.6867 26.742 65.0407 27.05L64.6627 26.154C66.9447 25.916 68.9327 24.88 68.9327 23.536V23.144ZM69.1287 23.144H70.1227V23.536C70.1227 24.922 72.0967 25.93 74.3927 26.154L74.0147 27.05C71.3827 26.742 69.1287 25.51 69.1287 23.536V23.144ZM69.5487 14.618C72.2927 14.618 74.0007 15.472 74.0007 16.942C74.0007 18.412 72.2927 19.266 69.5487 19.266C66.7907 19.266 65.0967 18.412 65.0967 16.942C65.0967 15.472 66.7907 14.618 69.5487 14.618ZM69.5487 15.514C67.5187 15.514 66.2867 16.032 66.2867 16.942C66.2867 17.838 67.5187 18.37 69.5487 18.37C71.5647 18.37 72.8107 17.838 72.8107 16.942C72.8107 16.032 71.5647 15.514 69.5487 15.514Z" fill="black"/>
<rect x="1" y="0.5" width="99" height="41" rx="7.5" stroke="#C9D2FA"/>
</svg>
