<svg width="96" height="32" viewBox="0 0 96 32" fill="none" xmlns="http://www.w3.org/2000/svg">
<g id="&#235;&#161;&#156;&#234;&#179;&#160;">
<path id="I" d="M60.2635 31.0898V0H67.3446V31.0898H60.2635Z" fill="#191778"/>
<path id="K" d="M6.10352e-05 31.2988V0.208984H7.08113V12.5197H7.19981L15.5468 0.208984H23.3003L14.3996 12.6866L24.9618 31.2988H17.2478L10.2854 18.5708L7.08113 23.1612V31.2988H6.10352e-05Z" fill="#191778"/>
<path id="U" d="M41.3049 32.0002C33.4326 32.0002 29.358 27.2846 29.358 16.81V0.326172H36.3995V17.6029C36.3995 23.487 38.061 25.5736 41.3049 25.5736C44.5092 25.5736 46.2893 23.487 46.2893 17.6029V0.326172H53.0935V16.81C53.0935 27.2846 49.1376 32.0002 41.3049 32.0002Z" fill="#191778"/>
<path id="Z" d="M74.4799 31.0898V26.5828L87.1783 6.21796H75.7062V0H95.8813V4.50698L83.1829 24.8301H96V31.0898H74.4799Z" fill="#191778"/>
</g>
</svg>
