<svg width="240" height="48" viewBox="0 0 240 48" fill="none" xmlns="http://www.w3.org/2000/svg">
<rect width="240" height="48" rx="24" fill="#E1E1E1"/>
<path d="M88.956 30V18.16H92.844C95.452 18.16 97.468 19.072 97.468 21.888C97.468 24.592 95.452 25.792 92.908 25.792H91.324V30H88.956ZM91.324 23.92H92.748C94.38 23.92 95.164 23.232 95.164 21.888C95.164 20.496 94.3 20.048 92.668 20.048H91.324V23.92ZM99.6279 30V18.16H102.876C106.492 18.16 108.716 20.032 108.716 24.032C108.716 28.016 106.492 30 103.004 30H99.6279ZM101.996 28.096H102.716C104.94 28.096 106.3 26.912 106.3 24.032C106.3 21.152 104.94 20.048 102.716 20.048H101.996V28.096ZM111.05 30V18.16H118.346V20.128H113.418V23.232H117.626V25.2H113.418V30H111.05ZM125.89 17.504H127.554V19.216C127.554 21.728 126.546 24.24 124.13 25.264L123.01 23.616C125.074 22.704 125.89 20.88 125.89 19.216V17.504ZM126.274 17.504H127.938V19.216C127.938 20.8 128.738 22.4 130.69 23.168L129.554 24.784C127.25 23.872 126.274 21.632 126.274 19.216V17.504ZM133.826 16.624H135.842V25.664H133.826V16.624ZM132.05 20.208H134.402V21.92H132.05V20.208ZM130.69 16.896H132.674V25.2H130.69V16.896ZM130.818 25.872C133.922 25.872 135.922 26.912 135.922 28.656C135.922 30.384 133.922 31.424 130.818 31.424C127.698 31.424 125.73 30.384 125.73 28.656C125.73 26.912 127.698 25.872 130.818 25.872ZM130.818 27.472C128.914 27.472 127.842 27.872 127.842 28.656C127.842 29.44 128.914 29.824 130.818 29.824C132.722 29.824 133.778 29.44 133.778 28.656C133.778 27.872 132.722 27.472 130.818 27.472ZM141.377 17.376H143.153V18.704C143.153 21.68 141.825 24.288 138.913 25.264L137.809 23.552C140.337 22.736 141.377 20.736 141.377 18.704V17.376ZM141.825 17.376H143.537V18.608C143.537 20.576 144.497 22.4 146.849 23.152L145.745 24.816C143.009 23.872 141.825 21.488 141.825 18.608V17.376ZM148.209 16.608H150.337V25.28H148.209V16.608ZM145.313 25.664C148.449 25.664 150.385 26.736 150.385 28.544C150.385 30.368 148.449 31.424 145.313 31.424C142.177 31.424 140.241 30.368 140.241 28.544C140.241 26.736 142.177 25.664 145.313 25.664ZM145.313 27.312C143.393 27.312 142.369 27.712 142.369 28.544C142.369 29.376 143.393 29.792 145.313 29.792C147.249 29.792 148.273 29.376 148.273 28.544C148.273 27.712 147.249 27.312 145.313 27.312ZM145.505 19.296H148.513V21.024H145.505V19.296Z" fill="#ACACAC"/>
</svg>
