<svg width="240" height="48" viewBox="0 0 240 48" fill="none" xmlns="http://www.w3.org/2000/svg">
<rect width="240" height="48" rx="24" fill="#312E81"/>
<path d="M99.412 16.608H101.54V24.048H99.412V16.608ZM94.468 17.168H96.788C96.788 21.104 94.516 23.408 90.02 24.384L89.316 22.672C93.028 21.936 94.468 20.304 94.468 18.32V17.168ZM90.164 17.168H95.364V18.864H90.164V17.168ZM96.212 18.448H99.684V20.064H96.212V18.448ZM96.116 21.328H99.604V22.928H96.116V21.328ZM91.748 24.592H101.54V28.672H93.908V30.512H91.78V27.104H99.412V26.256H91.748V24.592ZM91.78 29.616H101.844V31.28H91.78V29.616ZM104.483 18.08H110.867V19.76H104.483V18.08ZM106.387 22.32H108.483V27.344H106.387V22.32ZM110.019 18.08H112.115V19.28C112.115 20.72 112.115 22.512 111.715 24.976L109.635 24.784C110.019 22.416 110.019 20.704 110.019 19.28V18.08ZM113.379 16.608H115.507V31.424H113.379V16.608ZM114.883 22.56H117.491V24.32H114.883V22.56ZM103.923 28.432L103.731 26.72C106.339 26.72 109.795 26.672 112.707 26.304L112.819 27.856C109.827 28.368 106.499 28.432 103.923 28.432ZM122.219 27.984H135.627V29.712H122.219V27.984ZM127.835 24.816H129.963V28.4H127.835V24.816ZM123.627 17.552H125.739V19.824H132.059V17.552H134.171V25.264H123.627V17.552ZM125.739 21.488V23.568H132.059V21.488H125.739ZM147.129 16.608H149.273V31.424H147.129V16.608ZM142.761 18.144H144.873C144.873 22.672 143.337 26.384 138.073 28.928L136.969 27.232C141.225 25.184 142.761 22.496 142.761 18.528V18.144ZM137.753 18.144H143.769V19.824H137.753V18.144Z" fill="white"/>
</svg>
