<svg width="260" height="48" viewBox="0 0 260 48" fill="none" xmlns="http://www.w3.org/2000/svg">
<path d="M110.404 18.272V19.92H101.556V18.272H104.932V16.688H107.044V18.272H110.404ZM104.34 23.264C104.34 24.032 105.012 24.448 105.988 24.448C106.98 24.448 107.636 24.032 107.636 23.264C107.636 22.512 106.98 22.096 105.988 22.096C105.012 22.096 104.34 22.512 104.34 23.264ZM107.044 25.936V27.104C108.244 27.024 109.444 26.944 110.596 26.784L110.756 28.32C107.54 28.912 104.132 28.928 101.524 28.928L101.268 27.216C102.372 27.216 103.62 27.216 104.932 27.184V25.936C103.348 25.632 102.324 24.64 102.324 23.264C102.324 21.616 103.828 20.496 105.988 20.496C108.132 20.496 109.636 21.616 109.636 23.264C109.636 24.64 108.612 25.632 107.044 25.936ZM111.364 16.64H113.476V31.376H111.364V16.64ZM123.427 25.2H126.195V16.64H128.307V27.808H126.195V26.64H123.427V25.2ZM120.595 18.672C119.603 18.672 118.915 19.056 118.915 19.776C118.915 20.496 119.603 20.864 120.595 20.864C121.571 20.864 122.259 20.496 122.259 19.776C122.259 19.056 121.571 18.672 120.595 18.672ZM120.595 22.4C118.435 22.4 116.931 21.344 116.931 19.776C116.931 18.208 118.435 17.136 120.595 17.136C122.739 17.136 124.259 18.208 124.259 19.776C124.259 21.344 122.739 22.4 120.595 22.4ZM119.811 29.44H128.627V31.12H117.699V26.736H119.747V24.768C118.451 24.832 117.219 24.848 116.115 24.848L115.843 23.168C118.531 23.152 122.115 23.12 125.219 22.72L125.363 24.224C124.211 24.416 123.027 24.544 121.843 24.64V27.424H119.811V29.44ZM131.298 18.144H138.242C138.242 22.56 136.562 26.352 131.666 28.832L130.482 27.216C133.906 25.456 135.73 23.12 136.114 19.856H131.298V18.144ZM144.226 22.256V24H142.162V31.344H140.05V16.624H142.162V22.256H144.226ZM155.456 16.64H157.584V24.56H155.456V16.64ZM147.792 25.2H149.888V26.576H155.488V25.2H157.584V31.2H147.792V25.2ZM149.888 28.192V29.52H155.488V28.192H149.888ZM149.568 17.248C151.856 17.248 153.568 18.704 153.568 20.72C153.568 22.752 151.856 24.208 149.568 24.208C147.28 24.208 145.552 22.752 145.552 20.72C145.552 18.704 147.28 17.248 149.568 17.248ZM149.568 18.992C148.448 18.992 147.616 19.648 147.616 20.72C147.616 21.824 148.448 22.464 149.568 22.464C150.688 22.464 151.504 21.824 151.504 20.72C151.504 19.648 150.688 18.992 149.568 18.992Z" fill="#191778"/>
<rect x="0.5" y="0.5" width="259" height="47" rx="23.5" stroke="#312E81"/>
</svg>
