<svg width="12" height="13" viewBox="0 0 12 13" fill="none" xmlns="http://www.w3.org/2000/svg">
<path d="M3.7793 2.86719V1.63672C3.7793 1.24609 3.89844 0.939453 4.13672 0.716797C4.375 0.494141 4.70117 0.382812 5.11523 0.382812H7.24219C7.65625 0.382812 7.98242 0.494141 8.2207 0.716797C8.46289 0.939453 8.58398 1.24609 8.58398 1.63672V2.86719H7.78125V1.68359C7.78125 1.51562 7.72852 1.38281 7.62305 1.28516C7.51758 1.18359 7.375 1.13281 7.19531 1.13281H5.16211C4.98633 1.13281 4.8457 1.18359 4.74023 1.28516C4.63477 1.38281 4.58203 1.51562 4.58203 1.68359V2.86719H3.7793ZM1.22461 3.26562C1.12305 3.26562 1.03516 3.22852 0.960938 3.1543C0.886719 3.08008 0.849609 2.99023 0.849609 2.88477C0.849609 2.7793 0.886719 2.68945 0.960938 2.61523C1.03516 2.54102 1.12305 2.50391 1.22461 2.50391H11.1445C11.2461 2.50391 11.334 2.54102 11.4082 2.61523C11.4824 2.68945 11.5195 2.7793 11.5195 2.88477C11.5195 2.99023 11.4824 3.08008 11.4082 3.1543C11.3379 3.22852 11.25 3.26562 11.1445 3.26562H1.22461ZM3.65625 12.6699C3.27344 12.6699 2.96094 12.5547 2.71875 12.3242C2.48047 12.0938 2.35156 11.7871 2.33203 11.4043L1.93359 3.16602H2.72461L3.12891 11.3223C3.13672 11.4863 3.19727 11.625 3.31055 11.7383C3.42383 11.8516 3.5625 11.9082 3.72656 11.9082H8.63672C8.80469 11.9082 8.94531 11.8516 9.05859 11.7383C9.17188 11.6289 9.23242 11.4902 9.24023 11.3223L9.62695 3.16602H10.4355L10.0371 11.3984C10.0176 11.7812 9.88672 12.0879 9.64453 12.3184C9.40625 12.5527 9.09766 12.6699 8.71875 12.6699H3.65625ZM4.53516 10.9121C4.44141 10.9121 4.36523 10.8848 4.30664 10.8301C4.25195 10.7754 4.22266 10.7031 4.21875 10.6133L4.04297 4.60742C4.04297 4.51758 4.07227 4.44531 4.13086 4.39062C4.18945 4.33594 4.26562 4.30859 4.35938 4.30859C4.45312 4.30859 4.52734 4.33594 4.58203 4.39062C4.64062 4.44141 4.67188 4.51172 4.67578 4.60156L4.85156 10.6074C4.85547 10.6973 4.82812 10.7715 4.76953 10.8301C4.71094 10.8848 4.63281 10.9121 4.53516 10.9121ZM6.1875 10.9121C6.08984 10.9121 6.00977 10.8848 5.94727 10.8301C5.88867 10.7715 5.85938 10.6973 5.85938 10.6074V4.60742C5.85938 4.51758 5.88867 4.44531 5.94727 4.39062C6.00977 4.33594 6.08984 4.30859 6.1875 4.30859C6.28516 4.30859 6.36328 4.33594 6.42188 4.39062C6.48047 4.44531 6.50977 4.51758 6.50977 4.60742V10.6074C6.50977 10.6973 6.48047 10.7715 6.42188 10.8301C6.36328 10.8848 6.28516 10.9121 6.1875 10.9121ZM7.83398 10.9121C7.73633 10.9121 7.6582 10.8848 7.59961 10.8301C7.54102 10.7715 7.51172 10.6992 7.51172 10.6133L7.6875 4.60742C7.69141 4.51367 7.72266 4.44141 7.78125 4.39062C7.83984 4.33594 7.91602 4.30859 8.00977 4.30859C8.10352 4.30859 8.17969 4.33594 8.23828 4.39062C8.29688 4.44531 8.32617 4.51758 8.32617 4.60742L8.15039 10.6191C8.14648 10.7051 8.11523 10.7754 8.05664 10.8301C8.00195 10.8848 7.92773 10.9121 7.83398 10.9121Z" fill="#555555"/>
</svg>
