<svg width="26" height="17" viewBox="0 0 26 17" fill="none" xmlns="http://www.w3.org/2000/svg">
<rect x="26" y="17" width="26" height="17" rx="4" transform="rotate(180 26 17)" fill="#8788AB"/>
<path transform="translate(8.5, 5)" d="M0.174594 4.92812L4.54545 0.209302C4.68192 0.0697674 4.83444 0 5.00301 0C5.0873 0 5.16757 0.0190275 5.24383 0.0570825C5.32009 0.0909091 5.38832 0.141649 5.44852 0.209302L9.82541 4.92812C9.9418 5.05074 10 5.19662 10 5.36575C10 5.48414 9.97391 5.59197 9.92173 5.68922C9.86956 5.78224 9.79731 5.85835 9.705 5.91755C9.6167 5.97252 9.51636 6 9.40397 6C9.24343 6 9.09894 5.93657 8.9705 5.80973L4.70801 1.21142H5.29199L1.02348 5.80973C0.90307 5.93657 0.760586 6 0.596026 6C0.483644 6 0.381296 5.97252 0.288983 5.91755C0.200682 5.85835 0.130444 5.78224 0.0782661 5.68922C0.0260887 5.59197 0 5.48414 0 5.36575C0 5.28118 0.0160546 5.20296 0.0481638 5.13108C0.0802729 5.05497 0.122416 4.98732 0.174594 4.92812Z" fill="white"/>
</svg>
