<svg width="77" height="36" viewBox="0 0 77 36" fill="none" xmlns="http://www.w3.org/2000/svg">
<rect width="77" height="36" rx="5" fill="#312E81"/>
<path d="M26.912 23.52V22.208H21.344V23.52H26.912ZM26.912 20.608V19.2H29.008V25.2H19.248V19.2H21.344V20.608H26.912ZM20.752 16.528C21.84 16.528 22.624 15.872 22.624 14.768C22.624 13.664 21.84 13.008 20.752 13.008C19.68 13.008 18.896 13.664 18.896 14.768C18.896 15.872 19.68 16.528 20.752 16.528ZM26.896 10.64H29.008V18.56H26.896V15.6H24.56C24.16 17.2 22.656 18.288 20.752 18.288C18.544 18.288 16.88 16.816 16.88 14.768C16.88 12.72 18.544 11.248 20.752 11.248C22.624 11.248 24.128 12.32 24.544 13.888H26.896V10.64ZM39.1188 22.032H44.7508V23.76H31.4068V22.032H37.0068V19.84H32.9428V14.848H41.1668V13.264H32.9268V11.584H43.2468V16.496H35.0388V18.144H43.5828V19.84H39.1188V22.032ZM58.0455 17.44V19.12H47.6775V11.856H57.9335V13.568H49.7895V17.44H58.0455ZM46.1255 21.888H59.4695V23.616H46.1255V21.888Z" fill="white"/>
</svg>
